<svg xmlns="http://www.w3.org/2000/svg" height="48" width="48" viewBox="0 0 48 48">
    <g fill="none" fill-rule="evenodd">
        <path d="M31.342 21.486c4.739 9.732 5.717 18.904 2.125 20.737-3.704 1.891-10.863-4.735-15.991-14.8-5.129-10.064-6.283-19.756-2.58-21.646 1.613-.824 3.882-.032 6.352 1.955" stroke="#eed9b7" stroke-width="1.272705" stroke-linecap="round"/>
        <path d="M7.919 28.173c-2.763-1.432-4.371-3.158-4.279-4.94.216-4.136 9.506-7.014 20.75-6.43 11.244.584 20.185 4.409 19.97 8.544-.094 1.784-1.873 3.332-4.769 4.471" stroke="#eed9b7" stroke-width="1.272705" stroke-linecap="round"/>
        <path d="M19.573 39.077c-3.01 2.186-5.69 2.984-7.366 1.89-3.47-2.263-1.328-11.777 4.784-21.248 6.11-9.471 13.878-15.314 17.348-13.05 1.613 1.052 2.013 3.67 1.366 7.123" stroke="#eed9b7" stroke-width="1.272705" stroke-linecap="round"/>
        <path d="M27.214 23.463a2.545 2.545 0 1 1-4.975 1.074 2.545 2.545 0 0 1 4.976-1.074" fill="#eed9b7"/>
    </g>
</svg>